<svg width="50" height="50" viewBox="0 0 50 50" fill="none" xmlns="http://www.w3.org/2000/svg">
<g filter="url(#filter0_d)">
<rect x="10" y="10" width="30" height="30" rx="15" fill="url(#paint0_linear)"/>
</g>
<path fill-rule="evenodd" clip-rule="evenodd" d="M23.2357 32C25.4331 32 27.3143 30.7788 28.0909 29.0475C28.1004 29.0264 24.9729 29.8603 25.0726 29.5655C25.1171 29.4339 27.0343 28.7335 28.4311 27.9166C29.2339 27.4471 29.6036 26.4531 29.6036 26.4531C29.6036 26.4531 28.2511 27.1098 27.5673 27.2764C26.1894 27.6121 24.9765 27.576 24.9765 27.541C24.9765 27.4654 26.9905 27.0827 29.7898 25.3769C31.1064 24.5745 31.4641 23.1925 31.4641 23.1925C31.4641 23.1925 30.0165 24.0547 29.1414 24.3394C27.0661 25.0145 25.1723 25.2179 25.1723 25.1266C25.1723 24.931 26.8389 24.4727 28.6059 23.6165C29.5247 23.1713 30.3203 22.5897 31.2424 21.943C32.7512 20.8847 33 19 33 19C33 19 31.5119 19.9598 30.7858 20.2785C27.7893 21.5937 25.1434 22.2836 23.2357 22.4329C20.3559 22.6584 18 24.6676 18 27.2764C18 29.8852 20.3441 32 23.2357 32Z" fill="white"/>
<defs>
<filter id="filter0_d" x="0" y="0" width="50" height="50" filterUnits="userSpaceOnUse" color-interpolation-filters="sRGB">
<feFlood flood-opacity="0" result="BackgroundImageFix"/>
<feColorMatrix in="SourceAlpha" type="matrix" values="0 0 0 0 0 0 0 0 0 0 0 0 0 0 0 0 0 0 127 0"/>
<feOffset/>
<feGaussianBlur stdDeviation="5"/>
<feColorMatrix type="matrix" values="0 0 0 0 0.615686 0 0 0 0 0.709804 0 0 0 0 0.894118 0 0 0 0.7 0"/>
<feBlend mode="normal" in2="BackgroundImageFix" result="effect1_dropShadow"/>
<feBlend mode="normal" in="SourceGraphic" in2="effect1_dropShadow" result="shape"/>
</filter>
<linearGradient id="paint0_linear" x1="10" y1="10" x2="10" y2="40" gradientUnits="userSpaceOnUse">
<stop stop-color="#90A7DA"/>
<stop offset="1" stop-color="#A6C2F2"/>
</linearGradient>
</defs>
</svg>
