<svg width="16" height="16" viewBox="0 0 16 16" fill="none" xmlns="http://www.w3.org/2000/svg">
<path fill-rule="evenodd" clip-rule="evenodd" d="M8 15C11.866 15 15 11.866 15 8C15 4.13401 11.866 1 8 1C4.13401 1 1 4.13401 1 8C1 11.866 4.13401 15 8 15Z" stroke="#559EDF"/>
<path fill-rule="evenodd" clip-rule="evenodd" d="M7.99999 10.6924C9.48691 10.6924 10.6923 9.48697 10.6923 8.00005C10.6923 6.51313 9.48691 5.30774 7.99999 5.30774C6.51307 5.30774 5.30768 6.51313 5.30768 8.00005C5.30768 9.48697 6.51307 10.6924 7.99999 10.6924Z" stroke="#559EDF"/>
<path fill-rule="evenodd" clip-rule="evenodd" d="M8.00001 8.53847C8.29739 8.53847 8.53847 8.29739 8.53847 8.00001C8.53847 7.70263 8.29739 7.46155 8.00001 7.46155C7.70263 7.46155 7.46155 7.70263 7.46155 8.00001C7.46155 8.29739 7.70263 8.53847 8.00001 8.53847Z" stroke="#559EDF"/>
<path fill-rule="evenodd" clip-rule="evenodd" d="M1.05927 7.9635C2.5052 8.00663 3.9119 7.92037 5.35784 7.9635H1.05927Z" stroke="#559EDF"/>
<path fill-rule="evenodd" clip-rule="evenodd" d="M10.7048 7.98267L14.828 7.98267L10.7048 7.98267Z" stroke="#559EDF"/>
</svg>
