<svg width="21" height="22" viewBox="0 0 21 22" fill="none" xmlns="http://www.w3.org/2000/svg">
<path fill-rule="evenodd" clip-rule="evenodd" d="M6.50539 14.2C9.20743 14.2 11.3979 11.9083 11.3979 9.08127C11.3979 6.25427 9.20743 3.96252 6.50539 3.96252C3.80335 3.96252 1.61292 6.25427 1.61292 9.08127C1.61292 11.9083 3.80335 14.2 6.50539 14.2Z" stroke="#80B6F4" stroke-width="1.3"/>
<path fill-rule="evenodd" clip-rule="evenodd" d="M11.0215 14.5937C13.7236 14.5937 15.914 12.302 15.914 9.47495C15.914 6.64794 13.7236 4.3562 11.0215 4.3562C8.31949 4.3562 6.12906 6.64794 6.12906 9.47495C6.12906 11.8289 7.64772 13.8117 9.71587 14.4094C10.1315 14.5295 10.5694 14.5937 11.0215 14.5937Z" stroke="#CE71E1" stroke-width="1.3"/>
<path d="M6.37247 14.4868V20.4726" stroke="#80B6F4" stroke-width="1.3" stroke-linecap="round"/>
<path d="M18.5484 1.99373L14.7849 5.93123" stroke="#CE71E1" stroke-width="1.3" stroke-linecap="round"/>
<path d="M18.5484 1.99373V5.14373" stroke="#CE71E1" stroke-width="1.3" stroke-linecap="round"/>
<path d="M3.72391 17.7171H9.12608" stroke="#80B6F4" stroke-width="1.3" stroke-linecap="round"/>
<path d="M18.5484 1.99375H15.5377" stroke="#CE71E1" stroke-width="1.3" stroke-linecap="round"/>
</svg>
